<svg width="162" height="80" viewBox="0 0 162 80" fill="none" xmlns="http://www.w3.org/2000/svg">
<rect width="162" height="80" fill="#f4f4f4"/>
<g clip-path="url(#clip0_22_100)">
<path fill-rule="evenodd" clip-rule="evenodd" d="M27.3812 38.3354C27.4978 38.6191 27.7774 39.3047 27.854 39.4928C27.916 39.6601 27.8974 39.8481 27.8039 39.9988C27.6126 40.3222 24.4498 45.7501 24.4498 45.7501C24.4498 45.7501 30.6915 41.9751 31.6808 41.3737C32.0615 41.1455 32.3329 40.7622 32.4291 40.3169C32.5253 39.8715 32.4376 39.4047 32.1872 39.0295C31.8456 38.5037 26.4311 30.1462 26.1906 29.7736C26.0983 29.6146 26.0966 29.416 26.1863 29.2553C26.2759 29.0946 26.4426 28.9972 26.6215 29.0011H27.8704C28.3168 28.9857 28.7538 29.137 29.1019 29.4275C32.445 32.1878 39.6933 38.1756 41.7338 39.8664C42.3635 40.3876 42.5 41.3244 42.0471 42.0158C41.3998 42.9867 40.4471 43.6934 39.3526 44.0149C37.7275 44.6333 22.0796 50.5662 19.4944 51.5657C18.7321 51.8596 17.9245 52.0067 17.1114 51.9998H15.448C15.2732 52.0027 15.1133 51.8982 15.0403 51.7333C14.9673 51.5684 14.995 51.3743 15.111 51.2385C15.7878 50.4745 26.3245 38.7184 26.7618 38.2314C26.8467 38.1336 26.9736 38.0873 27.0988 38.1083C27.2239 38.1293 27.3303 38.2148 27.3812 38.3354ZM89.911 40.9709C89.6283 40.6935 89.2468 40.5516 88.8588 40.5794H80.0602L81.0185 38.6739H91.6682C92.4513 38.6931 93.1933 38.3108 93.6522 37.6517L94.0666 36.829C94.2367 36.5556 94.2019 36.1965 93.9828 35.9637C93.6934 35.6886 93.3088 35.547 92.917 35.5713H78.4333C77.6536 35.5491 76.9138 35.9282 76.4566 36.5841L70.9837 47.4409C70.8096 47.7175 70.8417 48.082 71.0611 48.3213C71.3475 48.5949 71.7282 48.7368 72.1169 48.7146H86.5141C87.2987 48.7367 88.0424 48.352 88.4981 47.6886L88.9345 46.847C89.0877 46.5734 89.0507 46.228 88.8434 45.996C88.56 45.728 88.1837 45.5914 87.8013 45.6177H77.5169L78.5025 43.6669H87.6118C88.3924 43.6837 89.1318 43.3043 89.5931 42.6503L90.0157 41.8371C90.1743 41.5566 90.1317 41.2006 89.9119 40.969L89.911 40.9709ZM147.961 35.9827C148.098 36.2758 147.87 36.6333 147.34 36.9614L138.811 42.1444L142.223 47.4399C142.401 47.6904 142.379 48.0381 142.17 48.2617C141.858 48.5784 141.432 48.7439 140.997 48.7175L138.395 48.8641C137.564 48.9525 136.75 48.5749 136.259 47.873L134.36 44.8763L129.525 47.8172C128.667 48.3819 127.678 48.6931 126.663 48.7175H123.667C123.406 48.8094 123.117 48.7384 122.923 48.5348C122.73 48.3312 122.665 48.0306 122.756 47.7606C122.848 47.4906 123.08 47.2985 123.354 47.2659L132.363 41.7917L129.161 36.8507C128.986 36.6045 129.004 36.2639 129.205 36.0394C129.516 35.7135 129.947 35.5414 130.389 35.5666H133.085C133.919 35.489 134.728 35.8827 135.203 36.5973L136.805 39.0843L141.45 36.2597C142.372 35.7761 143.396 35.5379 144.428 35.5666H147.064C147.418 35.4924 147.778 35.6581 147.962 35.9798L147.961 35.9827ZM126.59 35.9656C126.808 36.1973 126.845 36.553 126.682 36.8281L121.178 47.6839C120.711 48.3531 119.955 48.7387 119.159 48.7137H116.822C116.428 48.7377 116.042 48.5943 115.753 48.3165C115.537 48.0943 115.499 47.7462 115.662 47.4796L121.146 36.5973C121.605 35.9374 122.346 35.5524 123.131 35.5666H125.51C125.908 35.5409 126.299 35.6851 126.592 35.9656H126.59ZM118.652 35.9524C118.877 36.193 118.915 36.5627 118.743 36.847L113.284 47.6697C112.831 48.3431 112.082 48.7342 111.291 48.7099H109.03C108.64 48.7382 108.256 48.5995 107.967 48.326C107.75 48.0824 107.716 47.7184 107.884 47.4361L111.26 40.6768L104.102 47.8021C103.464 48.3546 102.668 48.6736 101.837 48.7099H100.935C100.221 48.8199 99.5459 48.3401 99.3864 47.6092L99.3136 40.6768L95.8083 47.6291C95.3576 48.3071 94.6046 48.6994 93.8116 48.6693H91.5497C91.1634 48.7002 90.782 48.5632 90.4967 48.291C90.2771 48.05 90.2419 47.6855 90.4111 47.404L95.8766 36.6115C96.3288 35.9451 97.0682 35.5528 97.8534 35.5628H101.977C102.376 35.5506 102.768 35.676 103.091 35.9193C103.343 36.1012 103.49 36.4012 103.485 36.7193L103.502 43.2215L110.243 36.5198C110.87 35.932 111.676 35.593 112.52 35.5628H117.623C118.002 35.5402 118.373 35.6797 118.65 35.9486L118.652 35.9524ZM72.0167 37.4739C73.0014 38.5718 72.9549 40.1425 71.8746 42.2513C69.6109 46.7156 65.3068 48.7099 57.8982 48.7099H49.9658C49.5691 48.7341 49.1799 48.5909 48.8864 48.3127C48.6784 48.0861 48.6436 47.7424 48.8017 47.4759L52.6922 39.7737H58.3181L55.4688 45.3577H59.1234C63.8074 45.3577 65.1692 44.4045 66.378 42.0215C67.0485 40.708 67.1523 39.9136 66.7315 39.4427C66.266 38.916 65.0335 38.6654 62.8646 38.6654H61.4189C61.4189 38.6654 54.0869 38.6654 53.8491 38.6654C53.347 38.6772 52.8446 38.6554 52.3452 38.6002C51.9945 38.5264 51.8569 38.3761 51.9262 38.1614C52.2113 37.2791 52.7478 36.5074 53.4647 35.9486C53.9828 35.6372 54.5828 35.5047 55.1782 35.5704C55.5571 35.5609 55.927 35.5609 56.3068 35.5609H64.2528C68.3292 35.5609 70.8808 36.1888 72.0176 37.472" fill="#424241"/>
</g>
<defs>
<clipPath id="clip0_22_100">
<rect width="133" height="56" fill="white" transform="translate(15 12)"/>
</clipPath>
</defs>
</svg>
