<svg width="162" height="80" viewBox="0 0 162 80" fill="none" xmlns="http://www.w3.org/2000/svg">
<rect width="162" height="80" fill="#f4f4f4"/>
<path fill-rule="evenodd" clip-rule="evenodd" d="M72.6256 29.0004C74.1076 28.9885 74.966 29.249 75.5639 30.0896C76.3236 31.1592 76.0374 33.6633 76.0374 35.4412C76.0506 38.2196 76.0657 40.998 76.0828 43.7764C76.0828 44.9604 76.2802 46.6436 75.848 47.4704C75.4534 48.2242 74.743 48.7234 73.8096 48.9385C72.5605 49.2266 71.3706 48.4412 70.97 47.8493C70.378 46.9751 70.4964 45.3925 70.4964 43.9185C70.4964 41.1164 70.4491 38.2137 70.4471 35.4886C70.4471 34.1467 70.2379 31.5617 70.6444 30.6106C70.9305 29.9531 71.4551 29.4285 72.1126 29.1425C72.2921 29.0694 72.4934 29.0971 72.6335 29.0004" fill="#1E3157"/>
<path fill-rule="evenodd" clip-rule="evenodd" d="M80.5352 29.0004C83.9687 28.9688 83.8049 30.8987 83.803 34.2099V39.7982C83.803 40.8362 83.7379 42.107 83.9451 42.9239C84.8054 43.4153 87.4082 43.1607 88.7303 43.1607C89.3696 43.1607 90.0623 43.212 90.5279 43.0186C91.4653 42.624 92.1224 40.9487 92.6591 40.0824C94.2634 37.4993 95.84 34.8472 97.4443 32.2682C98.1606 31.1138 98.6283 29.8351 99.9524 29.2845C100.28 29.1484 100.544 29.1859 100.939 29.0872C101.448 28.9988 101.971 29.0479 102.455 29.2293C103.931 29.8213 104.495 31.3999 105.296 32.6865C106.677 34.8709 107.984 37.1106 109.371 39.3167C110.024 40.3567 110.827 41.3986 111.311 42.5845C112.039 44.3605 111.374 46.1799 110.555 47.2731C110.02 47.9854 109 48.5064 107.99 48.7412H101.799C99.4808 48.7412 97.7127 48.9385 97.0161 47.2731C96.841 46.8348 96.7925 46.3562 96.876 45.8918C96.8898 45.7181 96.9076 45.5445 96.9234 45.3708C97.0505 44.9807 97.2598 44.6223 97.5372 44.32C97.8147 44.0177 98.1538 43.7785 98.5316 43.6185C99.019 43.4212 99.759 43.4764 100.428 43.4764C101.847 43.4764 103.627 43.656 104.88 43.3817C104.949 43.2481 104.997 43.1042 105.022 42.9555C104.73 42.5786 104.566 42.1307 104.311 41.7242C103.619 40.627 102.893 39.4983 102.178 38.409C101.949 38.0558 101.494 36.9251 101.042 36.8935C100.59 37.8999 99.907 38.8668 99.3367 39.7824C98.2968 41.4736 97.3792 43.2258 96.3551 44.8972C95.548 46.2075 94.9402 47.9203 93.4642 48.5439C92.8584 48.8004 91.9073 48.7412 91.0489 48.7412H86.4551C83.2682 48.7412 80.5155 49.1556 79.1164 47.2731C78.0429 45.8306 78.1673 44.4887 78.1673 42.0162V34.9676C78.1673 33.6889 77.9699 31.5992 78.3646 30.6579C78.6293 30.0454 79.0978 29.5434 79.6906 29.2372C79.9393 29.1227 80.3083 29.1484 80.5411 29.0004" fill="#1E3157"/>
<path fill-rule="evenodd" clip-rule="evenodd" d="M53.3984 29.3794H63.2491C64.6502 29.3794 66.6037 29.1564 67.5114 29.7109C68.2711 30.1746 69.1532 31.3053 68.7921 32.6945C68.577 33.5154 68.0343 34.2732 67.322 34.5889C66.507 34.9579 65.0705 34.8257 63.9121 34.8257H56.9523C55.2849 34.8257 53.1103 35.0565 52.1198 34.3521C51.0897 33.618 50.5826 31.698 51.5041 30.4213C51.8409 30.0102 52.2838 29.699 52.7848 29.5215C52.9821 29.4504 53.2386 29.48 53.3984 29.3794Z" fill="#E30613"/>
<path fill-rule="evenodd" clip-rule="evenodd" d="M53.3528 36.4828H62.351C63.8606 36.4828 65.5398 36.3388 66.4239 36.9564C66.9369 37.3156 67.7578 38.4818 67.5112 39.5612C67.2803 40.5814 66.7731 41.3727 65.9029 41.7318C65.3386 41.9686 64.5216 41.9291 63.7323 41.9291H57.1395C56.9422 41.9962 56.812 42.2192 56.6679 42.3553C56.5594 45.8422 57.3132 49.0803 53.4455 48.9382C53.0458 48.9173 52.6566 48.8031 52.3089 48.6048C51.7676 48.2544 51.3527 47.7399 51.125 47.1366C50.9414 46.6315 51.0322 45.8047 51.0322 45.1495V41.124C51.0322 40.088 50.8822 38.6949 51.2295 37.951C51.5399 37.3724 52.0424 36.9202 52.6503 36.6723C52.8733 36.5795 53.1693 36.6091 53.3627 36.4749" fill="#1E3157"/>
</svg>
