<svg width="162" height="80" viewBox="0 0 162 80" fill="none" xmlns="http://www.w3.org/2000/svg">
<rect width="162" height="80" fill="#f4f4f4"/>
<path fill-rule="evenodd" clip-rule="evenodd" d="M66.0222 40.6135C66.261 40.6159 66.261 40.6423 66.261 40.9328V51.8974C66.261 52.9449 67.4781 52.9733 67.4781 51.8974L67.487 40.9328C67.487 40.6133 67.487 40.6133 67.8348 40.6133H70.9799C71.2702 40.7171 71.3359 40.6133 71.3359 40.9328V52.6384C71.3732 54.2098 70.9799 54.5292 69.7913 54.5292H63.7045C62.6562 54.5292 62.2718 54.2479 62.2718 52.5355L62.2721 40.8594C62.2745 40.6133 62.3039 40.6133 62.6562 40.6133L66.0222 40.6135ZM85.0444 40.6136C86.1212 40.6136 86.5055 40.9331 86.5055 42.1209L86.5053 54.3174C86.5026 54.5288 86.4739 54.5288 86.1577 54.5288H83.0401C82.6566 54.5288 82.6566 54.5288 82.6566 54.2474V42.8993C82.6566 41.9077 81.4396 41.962 81.4396 42.8993L81.4393 54.3174C81.4366 54.5288 81.4071 54.5288 81.0828 54.5288H78.0496C77.5906 54.5288 77.5906 54.5288 77.5906 54.2474V42.8993C77.5906 41.8039 76.3744 41.9077 76.3744 42.8993V54.2474C76.3744 54.5288 76.3744 54.5288 75.952 54.5288H72.909C72.5255 54.5288 72.5255 54.5288 72.5255 54.2474V42.1963C72.5255 40.9331 72.909 40.6136 74.2023 40.6136H85.0444ZM59.0794 40.6134C60.5956 40.6134 60.9702 40.9328 60.9702 42.402V49.0142C60.9702 50.7364 60.5956 51.0923 59.0794 51.1572H56.2238C55.8678 51.1572 55.8678 51.2147 55.8678 51.5796L55.8675 54.324C55.8647 54.5285 55.8368 54.5285 55.5573 54.5285H52.374C52.0943 54.5285 52.0092 54.3137 52.0002 54.2391V54.2285C52.0092 54.2204 52.0092 54.2099 52.0189 54.2204L52.0191 40.894C52.0218 40.6134 52.0564 40.6134 52.5062 40.6134H59.0794ZM95.5679 40.6134C96.5798 40.6134 96.8977 40.9328 96.8977 42.1215L96.8974 54.324C96.8946 54.5285 96.8668 54.5285 96.5888 54.5285L93.3383 54.5283C93.0496 54.5262 93.0496 54.503 93.0496 54.248V51.5796C93.0496 51.1118 92.7407 50.8855 92.4309 50.8961C92.1423 50.9058 91.8609 51.1191 91.8228 51.5423L91.8225 54.3177C91.8196 54.5285 91.788 54.5285 91.4401 54.5285L88.2995 54.5284C87.9747 54.5266 87.9747 54.5051 87.9747 54.248V42.1312C87.9747 40.9328 88.3963 40.6134 89.4171 40.6134H95.5679ZM84.8666 25.8107C85.0718 25.9696 85.1277 25.9153 85.4188 26.5591C85.4464 26.6264 85.5315 26.7188 85.6247 26.7764C87.488 27.0002 89.0326 27.7583 91.2518 29.5113C91.2518 29.5113 92.5183 30.4979 93.9142 31.5785L94.358 31.9218C95.917 33.1271 97.4877 34.3324 97.5347 34.3324C99.0428 35.2867 101.654 35.7642 103.125 34.5667C104.586 33.0018 105.485 31.5505 105.869 29.9783C106.299 28.8813 108.07 26.9151 109.053 26.4951C109.81 26.1294 110.438 25.9891 110.728 26.4578C111.017 26.9248 111.113 27.2061 110.484 28.2359C109.473 28.9015 108.584 29.1351 107.647 29.8851C106.543 30.7648 105.764 31.9915 105.306 33.554C105.006 34.4353 104.333 35.3434 103.097 36.2702C102.9 36.3829 102.759 36.5426 102.843 36.7567C103.583 38.0856 103.967 39.4267 103.996 41.1764C104.07 41.447 104.08 41.6943 104.076 41.9356L104.068 42.244C104.05 42.9625 104.103 43.6952 105.588 44.9134C105.764 46.0729 106.289 46.5707 106.336 47.178C105.764 48.5459 106.458 49.1532 105.961 49.5569C104.08 49.1532 104.004 47.6086 104.183 45.7469C102.038 44.5007 100.577 42.121 99.4264 39.1729C98.9577 37.9559 98.0123 37.441 96.7758 37.1321C93.0591 37.0842 90.6437 35.7837 88.958 33.7786C88.6126 33.5264 88.405 33.2264 88.0685 33.6488C86.9553 34.5934 85.2777 34.1264 83.1809 33.2183C82.8347 33.1064 82.4318 32.8907 82.3564 33.3675C81.8326 34.4078 80.8312 33.6383 80.7558 33.0869C80.6609 31.6729 81.6728 31.4669 82.8428 31.3648C83.378 31.3648 83.9391 31.4856 84.4726 31.4856L84.5504 31.446C84.5811 31.4293 84.6054 31.4097 84.6501 31.3542C84.6785 30.7445 84.7815 30.3424 83.5831 30.2588C82.8907 30.3521 82.6466 30.3618 82.0474 29.8096C81.9355 29.7821 81.8415 29.7618 81.728 29.7156C81.6639 29.6499 81.655 29.6126 81.608 29.5186C81.552 29.4529 81.4012 29.3791 81.4012 29.0872C81.2326 28.9664 81.2707 28.7329 81.3639 28.4694C81.4012 28.4694 81.6453 28.1045 81.8512 27.8799C81.9542 27.7583 81.9728 27.5532 82.1228 27.421C82.5161 27.0951 82.9458 26.7188 82.9458 26.7188C83.1996 26.3451 83.3488 25.9696 83.5361 25.9332C83.6958 25.9413 83.8547 26.0734 84.0047 26.1383C84.0704 26.1764 84.0891 26.1764 84.2009 26.1764C84.445 26.1018 84.6234 25.998 84.8666 25.8107ZM56.4946 42.1312C56.1767 42.1312 55.8678 42.3477 55.8678 42.7588V48.7977C55.8678 49.2388 56.1767 49.4545 56.4946 49.4545C56.7946 49.4545 57.1035 49.2485 57.1221 48.835V42.7864C57.1221 42.3477 56.8132 42.1312 56.4946 42.1312ZM92.4309 42.2909C92.1325 42.2909 91.8228 42.4872 91.8228 42.8999V48.835C91.8228 49.2007 92.1325 49.388 92.4309 49.388C92.7407 49.3969 93.0496 49.2112 93.0496 48.835V42.8999C93.0496 42.5066 92.7407 42.3007 92.4309 42.2909Z" fill="black"/>
</svg>
