<svg width="162" height="80" viewBox="0 0 162 80" fill="none" xmlns="http://www.w3.org/2000/svg">
<rect width="162" height="80" fill="#f4f4f4"/>
<path fill-rule="evenodd" clip-rule="evenodd" d="M129.974 36.6547C129.183 36.6568 128.964 36.7295 128.794 37.0916L128.539 37.6492C128.364 38.0274 128.523 38.087 129.312 38.087H132.894C135.048 38.0855 135.949 38.6475 135.285 40.0979L134.17 42.5329C133.45 44.0965 132.314 44.9769 129.886 44.9793L120.786 44.9804L121.274 42.9508C121.685 43.1366 122.101 43.3239 123.087 43.3239L127.961 43.3221C128.76 43.3216 128.959 43.2593 129.121 42.8888L129.435 42.2053C129.608 41.8405 129.467 41.763 128.685 41.7636L124.566 41.7651C122.563 41.7651 122.004 41.2692 122.777 39.6062L123.782 37.3764C124.499 35.8137 125.878 35.0054 127.659 35.0054L137.216 35L136.565 36.9847C136.034 36.7849 135.641 36.6577 134.665 36.6562L129.974 36.6547ZM119.423 40.6431C120.53 40.5871 121.515 40.5069 122.189 39.0437L123.024 37.2067C123.788 35.5347 122.913 35.0061 120.598 35.0061L109.715 35.0073C109.909 35.4028 109.903 35.7682 109.465 36.7189L106.475 43.2672C106.042 44.2122 105.711 44.5833 105.27 44.9836L111.149 44.9821C111.081 44.5824 111.086 44.2098 111.519 43.2657L112.712 40.6457L114.269 40.6431L114.684 44.9812L120.331 44.9821C120.127 44.6962 120.074 44.3314 120.01 43.8964C119.99 43.755 119.968 43.6063 119.94 43.4504L119.423 40.6431ZM117.967 37.2159L117.418 38.4352C117.198 38.918 116.976 38.9948 116.323 38.9954L113.471 38.9963L114.553 36.6623L117.394 36.6599C118.041 36.6584 118.196 36.7316 117.967 37.2159ZM92.5102 43.267L95.5067 36.7181C95.9352 35.7728 96.2762 35.4041 96.6968 35.0101L90.8213 35.013C90.8928 35.4047 90.8895 35.7728 90.4532 36.7193L89.4155 39.0003H85.6433L86.691 36.7214C87.1294 35.7713 87.4594 35.4032 87.8922 35.0122L82.0119 35.0151C82.0843 35.4071 82.0771 35.7728 81.6342 36.7223L78.6473 43.2721C78.2098 44.2144 77.8754 44.5896 77.4406 44.9887L83.3211 44.9863C83.2538 44.5879 83.2568 44.215 83.6997 43.2706L84.8993 40.65L88.6591 40.6485L87.4633 43.2697C87.0291 44.2135 86.6931 44.5861 86.2648 44.9863L92.1359 44.9857C92.0656 44.5867 92.0739 44.2135 92.5102 43.267ZM74.4681 42.941C76.4742 42.9425 78.0718 42.5687 78.0718 42.5687L76.3983 44.9876L68.2361 44.9909C66.0905 44.9909 65.2393 44.202 66.2254 42.06L68.1026 37.9482C69.0884 35.7935 70.6407 35.0158 72.8023 35.0158L80.7525 35.0143L80.7352 35.076L80.7653 35.0736L80.1753 37.3687C80.1753 37.3687 79.3473 37.0565 78.4247 37.0586L74.7147 37.0577C74.0854 37.0577 73.8414 37.4717 73.7726 37.6233C73.7726 37.6233 71.8216 41.8164 71.6286 42.3075C71.4341 42.7974 71.5911 42.9383 72.1036 42.941C72.509 42.9466 74.4681 42.941 74.4681 42.941ZM62.9471 40.654C64.0756 40.6532 64.5918 40.7871 65.0618 40.9091L65.1096 40.9215L66.1094 38.7444L65.9828 38.7693C65.4182 38.8808 64.79 39.0049 63.7098 39.0035H60.1055L61.181 36.6721L65.2871 36.67C66.4745 36.6721 66.9868 36.8055 67.4698 36.9348L67.9368 35.018L56.4726 35.0168C56.5495 35.4105 56.5316 35.781 56.1024 36.7275L53.1102 43.2752C52.8374 43.8655 52.6039 44.2294 52.3644 44.5186C52.0588 43.9888 51.8337 43.3851 51.6857 42.9509L50.0747 37.9623L53.4181 36.0026C54.3147 35.4712 54.8306 35.2901 55.4813 35.0617L55.6074 35.0174L50.9896 35.0195C50.982 35.0458 50.9747 35.0718 50.9675 35.0976C50.9397 35.1974 50.9127 35.294 50.8675 35.3926C50.7156 35.7265 50.4696 35.968 49.6694 36.474L44.8261 39.4964L46.088 36.7296C46.5208 35.7804 46.8597 35.4129 47.2871 35.0174L41.4041 35.0218C41.4827 35.4144 41.4741 35.7816 41.0387 36.7296L38.0464 43.2791C37.6149 44.2259 37.2819 44.5946 36.8513 44.9981L42.7223 44.9987C42.6609 44.5946 42.6618 44.2238 43.0901 43.2779L43.7805 41.7825L45.4426 40.7657L46.4687 44.9957L63.5734 44.9913L64.9103 43.0697L64.8703 43.0782C64.3041 43.1983 63.6649 43.3339 62.52 43.3345H58.1264L59.3586 40.6546L62.9471 40.654ZM38.505 40.1169C39.1632 38.6662 38.2599 38.1048 36.1162 38.1048L32.5327 38.1078C31.7536 38.1063 31.5892 38.044 31.7628 37.6685L32.0205 37.1098C32.178 36.7482 32.4073 36.6776 33.1879 36.677L37.8823 36.6749C38.8517 36.6743 39.2606 36.8018 39.7845 37.0034L40.25 35.0232L30.886 35.0244C29.1 35.0232 27.713 35.8333 27.0039 37.3954L25.9966 39.6246C25.2202 41.2874 25.7777 41.7824 27.7854 41.7824L31.9034 41.7838C32.6915 41.7829 32.8207 41.8616 32.6539 42.2219L32.3397 42.9072C32.1762 43.2783 31.9728 43.3394 31.1898 43.3409H26.3117C25.317 43.34 24.9183 43.1581 24.5144 42.9738L24.5024 42.9683L24 45.0001L33.1111 44.998C35.5351 44.9962 36.6692 44.1188 37.3858 42.5555L38.505 40.1169ZM103.112 43.3265L98.7308 43.3259L99.9513 40.6473L103.552 40.6464C104.684 40.6446 105.21 40.7817 105.681 40.9041L105.708 40.9112L106.706 38.7364L106.595 38.7585C106.025 38.8724 105.398 38.9976 104.316 38.9967L100.705 38.9961L101.777 36.6621L105.892 36.6612C107.071 36.6621 107.58 36.7955 108.061 36.9216L108.072 36.9245L108.533 35.0085L97.0746 35.0115C97.1422 35.4047 97.1345 35.7722 96.6973 36.7213L93.7107 43.267C93.2717 44.2134 92.9316 44.586 92.511 44.9848L104.174 44.9827L105.509 43.0609C104.943 43.1865 104.289 43.3286 103.112 43.3265Z" fill="#0E2F4F"/>
</svg>
